<svg width="17" height="16" viewBox="0 0 17 16" fill="none" xmlns="http://www.w3.org/2000/svg">
<rect x="1" y="0.5" width="15" height="15" rx="7.5" stroke="#3D3D3D"/>
<path d="M8.50542 5.18517C8.18318 5.18517 7.91822 5.09208 7.71055 4.9059C7.51004 4.71255 7.40979 4.47624 7.40979 4.19696C7.40979 3.91052 7.51004 3.6742 7.71055 3.48802C7.91822 3.29467 8.18318 3.198 8.50542 3.198C8.82051 3.198 9.0783 3.29467 9.27881 3.48802C9.48648 3.6742 9.59031 3.91052 9.59031 4.19696C9.59031 4.47624 9.48648 4.71255 9.27881 4.9059C9.0783 5.09208 8.82051 5.18517 8.50542 5.18517ZM9.41845 6.80818V12.8019H7.58165V6.80818H9.41845Z" fill="#3D3D3D"/>
</svg>
